<?xml version="1.0" encoding="UTF-8"?>
<svg xmlns="http://www.w3.org/2000/svg" xmlns:xlink="http://www.w3.org/1999/xlink" id="svg6" version="1.1" viewBox="0 0 16 16">
	<defs id="defs3051">
		<style type="text/css" id="current-color-scheme">
      .ColorScheme-Highlight {
        color:#00e4ff;
      }
	  .ColorScheme-Text {color:#cccccc;}
      </style>
		<linearGradient id="linearGradient2" x1="2" x2="14" y1="8" y2="8" gradientUnits="userSpaceOnUse">
			<stop id="stop1" class="ColorScheme-Text" stop-color="currentColor" stop-opacity=".15" offset="1"/>
			<stop id="stop2" class="ColorScheme-Text" stop-color="currentColor" stop-opacity=".35" offset="1"/>
		</linearGradient>
	</defs>
	<path id="path4" class="ColorScheme-Highlight" d="m2 2v1 3 1 6 1h12v-1-7-1-1h-4.99l-2-2-0.00781 0.00781v-0.00781h-4-1zm1 1h3.59l1 1h-0.594v0.00781l-0.00781-0.00781-2 2h-1.99v-3zm0 4h10v6h-10v-6z" fill="currentColor"/>
	<path id="path1" d="m2 2v1 3 1 6 1h12v-1-7-1-1h-4.99l-2-2-0.00781 0.00781v-0.00781h-4-1zm1 1h3.59l1 1h-0.594v0.00781l-0.00781-0.00781-2 2h-1.99v-3zm0 4h10v6h-10v-6z" fill="url(#linearGradient2)"/>
</svg>
